<svg width="400" height="400" viewBox="0 0 400 400" fill="none" xmlns="http://www.w3.org/2000/svg">
  <!-- Gradient Background -->
  <rect width="400" height="400" fill="url(#gradient)" />
  
  <!-- DJ Logo -->
  <path d="M200 120C160 120 120 160 120 200C120 240 160 280 200 280C240 280 280 240 280 200C280 160 240 120 200 120ZM200 260C170 260 140 230 140 200C140 170 170 140 200 140C230 140 260 170 260 200C260 230 230 260 200 260Z" fill="white" fill-opacity="0.8"/>
  <circle cx="200" cy="200" r="30" fill="white" fill-opacity="0.8"/>
  <path d="M200 150V190M200 210V250" stroke="white" stroke-width="10" stroke-linecap="round"/>
  
  <!-- Gradient Definition -->
  <defs>
    <linearGradient id="gradient" x1="0" y1="0" x2="400" y2="400" gradientUnits="userSpaceOnUse">
      <stop offset="0%" stop-color="#7C3AED"/>
      <stop offset="100%" stop-color="#C026D3"/>
    </linearGradient>
  </defs>
</svg> 